<?xml version="1.0" encoding="UTF-8" standalone="no"?>
<!-- Created with Inkscape (http://www.inkscape.org/) -->

<svg
   width="40"
   height="40"
   viewBox="0 0 10.583333 10.583333"
   version="1.1"
   id="svg8"
   inkscape:version="1.3.2 (1:1.3.2+202311252150+091e20ef0f)"
   sodipodi:docname="pluginIcon.svg"
   xmlns:inkscape="http://www.inkscape.org/namespaces/inkscape"
   xmlns:sodipodi="http://sodipodi.sourceforge.net/DTD/sodipodi-0.dtd"
   xmlns="http://www.w3.org/2000/svg"
   xmlns:svg="http://www.w3.org/2000/svg"
   xmlns:rdf="http://www.w3.org/1999/02/22-rdf-syntax-ns#"
   xmlns:cc="http://creativecommons.org/ns#"
   xmlns:dc="http://purl.org/dc/elements/1.1/">
  <title
     id="title10393">Faktor-IPS Logo</title>
  <defs
     id="defs2" />
  <sodipodi:namedview
     id="base"
     pagecolor="#ffffff"
     bordercolor="#666666"
     borderopacity="1.0"
     inkscape:pageopacity="0.0"
     inkscape:pageshadow="2"
     inkscape:zoom="3.959798"
     inkscape:cx="-6.5659915"
     inkscape:cy="92.17642"
     inkscape:document-units="mm"
     inkscape:current-layer="layer1-3"
     showgrid="false"
     inkscape:window-width="2506"
     inkscape:window-height="1376"
     inkscape:window-x="1974"
     inkscape:window-y="27"
     inkscape:window-maximized="1"
     inkscape:pagecheckerboard="0"
     units="px"
     inkscape:showpageshadow="2"
     inkscape:deskcolor="#d1d1d1" />
  <metadata
     id="metadata5">
    <rdf:RDF>
      <cc:Work
         rdf:about="">
        <dc:format>image/svg+xml</dc:format>
        <dc:type
           rdf:resource="http://purl.org/dc/dcmitype/StillImage" />
        <dc:title>Faktor-IPS Logo</dc:title>
        <dc:creator>
          <cc:Agent>
            <dc:title>Faktor Zehn GmbH</dc:title>
          </cc:Agent>
        </dc:creator>
        <dc:rights>
          <cc:Agent>
            <dc:title>All rights reserved</dc:title>
          </cc:Agent>
        </dc:rights>
        <dc:description>A light blue stylized bird (&quot;Fipsi&quot;) above the text &quot;Faktor-IPS&quot;</dc:description>
      </cc:Work>
    </rdf:RDF>
  </metadata>
  <g
     inkscape:label="Layer 1"
     inkscape:groupmode="layer"
     id="layer1"
     transform="translate(209.0456,261.26162)">
    <g
       transform="matrix(1.1235764,0,0,1.176147,-209.64152,-599.37158)"
       id="layer1-3"
       inkscape:label="Layer 1">
      <path
         style="fill:#f2f2f2;fill-opacity:1;stroke:none;stroke-width:0.392242"
         d="m 6.2608289,287.92162 c -0.6722393,0 -1.2154843,0.52043 -1.2154843,1.16114 0,0.64072 0.543245,1.16116 1.2154843,1.16116 0.6722349,0 1.21548,-0.52044 1.21548,-1.16116 0,-0.64071 -0.5432451,-1.16114 -1.21548,-1.16114 z m 0.01252,0.52671 c 0.3502056,0 0.6515997,0.2808 0.6515997,0.63443 0,0.35365 -0.3013941,0.63445 -0.6515997,0.63445 -0.3502055,0 -0.6515994,-0.2808 -0.6515994,-0.63445 0,-0.35363 0.3013939,-0.63443 0.6515994,-0.63443 z m 0.213021,0.26335 c -0.1023869,0 -0.187959,0.082 -0.187959,0.17956 0,0.0976 0.085572,0.17956 0.187959,0.17956 0.102387,0 0.1879628,-0.082 0.1879628,-0.17956 0,-0.0976 -0.085576,-0.17956 -0.1879628,-0.17956 z m -2.1552867,1.90333 c -0.7236794,0.004 -1.5108466,0.0872 -2.1427537,0.20351 -0.05561,0.0102 -0.1099276,0.0133 -0.162901,0.0239 -0.2466469,0.0497 -0.4671,0.11043 -0.6390667,0.16758 -0.092177,0.0306 -0.1015481,0.0416 -0.1629006,0.0718 0.1454396,0.12773 0.3122373,0.28556 0.6515994,0.45489 0.046834,0.0233 0.1010266,0.0487 0.1503679,0.0718 0.09349,0.0435 0.199958,0.0901 0.3007397,0.13169 0.06549,0.027 0.1323851,0.0461 0.2004921,0.0718 0.037482,0.0142 0.0746,0.034 0.1127768,0.0479 0.082775,0.0298 0.1649838,0.0563 0.2506119,0.0838 0.060599,0.0195 0.1262891,0.0417 0.1879627,0.0598 0.1247522,0.0367 0.247775,0.0656 0.3759221,0.0957 0.143389,0.0337 0.2819824,0.0612 0.4260457,0.0838 0.00202,2.2e-4 0.010554,-2.3e-4 0.01252,0 0.1418882,0.0221 0.2743735,0.0383 0.413517,0.0479 0.00202,1.2e-4 0.010554,-1.1e-4 0.01252,0 0.068388,0.005 0.1333845,0.0108 0.2004918,0.012 0.2055045,0.004 0.4156155,-0.006 0.6014756,-0.0359 0.1878067,-0.0303 0.3541187,-0.0752 0.5137607,-0.14364 0.1064243,-0.0456 0.2089034,-0.10189 0.3007359,-0.1676 0.045915,-0.0329 0.095882,-0.0693 0.137839,-0.10773 0.083493,-0.0769 0.1587231,-0.16274 0.2255537,-0.26335 0.030941,-0.0466 0.057139,-0.0931 0.075186,-0.13168 0.00123,-0.003 -0.00123,-0.009 0,-0.012 0.055092,-0.12092 0.04876,-0.19768 0.025042,-0.26335 -0.00791,-0.0219 -0.02167,-0.0499 -0.037563,-0.0718 -0.015933,-0.0219 -0.037764,-0.0383 -0.062653,-0.0598 -0.025843,-0.0229 -0.051027,-0.0495 -0.087715,-0.0718 -0.034874,-0.0211 -0.066983,-0.0396 -0.112777,-0.0598 -0.092992,-0.0411 -0.2104524,-0.0768 -0.3383307,-0.10775 -0.062709,-0.0153 -0.1182388,-0.0231 -0.187959,-0.0359 -0.069776,-0.0127 -0.1497176,-0.0257 -0.2255537,-0.0359 -0.3031598,-0.0409 -0.6531567,-0.0614 -1.0149925,-0.0598 z"
         id="path6614-2"
         inkscape:connector-curvature="0"
         sodipodi:nodetypes="ssssssssssssssscccccccccccccccccccccccccccccccccc" />
      <path
         inkscape:connector-curvature="0"
         id="path6616-9"
         d="m 3.5547603,287.68786 c -0.8449721,0 -1.5239335,0.65048 -1.5239335,1.45581 v 1.31896 c -0.2919629,0.0563 -0.5536191,0.11523 -0.7684899,0.18664 -0.2365978,0.0787 -0.42190808,0.14882 -0.54705742,0.28618 l -0.0976758,0.11199 0.0911739,0.12443 c 0.17531349,0.238 0.51458742,0.46289 0.98339292,0.69681 0.1194868,0.0596 0.2514706,0.12337 0.3842408,0.18041 0.167171,0.6289 0.7640676,1.08876 1.4783484,1.08876 h 2.6701434 c 0.8449764,0 1.5239413,-0.64425 1.5239413,-1.44959 v -2.54459 c 0,-0.80533 -0.6789649,-1.45581 -1.5239413,-1.45581 z m 2.7027056,0.23641 c 0.6722391,0 1.2178517,0.51648 1.2178517,1.15719 0,0.64073 -0.5456126,1.16342 -1.2178517,1.16342 -0.6722351,0 -1.217844,-0.52269 -1.217844,-1.16342 0,-0.64071 0.5456089,-1.15719 1.217844,-1.15719 z m 0.013043,0.52882 c -0.3502098,0 -0.6512547,0.27473 -0.6512547,0.62837 0,0.35365 0.3010449,0.6346 0.6512547,0.6346 0.3502056,0 0.6512503,-0.28095 0.6512503,-0.6346 0,-0.35364 -0.3010447,-0.62837 -0.6512503,-0.62837 z m 0.214915,0.2613 c 0.1023829,0 0.1888656,0.0766 0.1888656,0.17421 0,0.0976 -0.086483,0.18042 -0.1888656,0.18042 -0.1023869,0 -0.1823527,-0.0829 -0.1823527,-0.18042 0,-0.0976 0.079966,-0.17421 0.1823527,-0.17421 z m 1.5890623,0.15554 c -0.084047,2.3e-4 -0.1562992,0.10452 -0.1562992,0.19909 v 1.3625 c 0,0.10808 0.089621,0.19287 0.1953747,0.19287 0.9844166,-0.27067 0.4507629,-0.64792 1.2829696,-0.71546 -0.1619738,-0.8806 -1.2829696,-1.03278 -1.2829696,-1.03278 -0.01244,-0.005 -0.027089,-0.006 -0.039046,-0.006 z m -3.7382049,1.74201 c 0.3618356,-0.002 0.7062905,0.0214 1.0094502,0.0622 0.00202,2.2e-4 0.00434,-2.3e-4 0.0065,0 0.075836,0.0102 0.1451386,0.0183 0.2149149,0.0311 0.06972,0.0128 0.1326621,0.0283 0.1953751,0.0436 0.1278744,0.031 0.2391465,0.0646 0.3321388,0.10577 0.04579,0.0202 0.082357,0.0411 0.1172274,0.0622 0.03668,0.0223 0.065309,0.0454 0.091174,0.0685 0.024881,0.0217 0.042692,0.0403 0.058616,0.0622 0.015933,0.0219 0.031142,0.0465 0.039048,0.0685 0.023718,0.0657 0.029056,0.1466 -0.026046,0.26753 -0.00123,0.003 -0.0053,0.004 -0.00654,0.006 -0.01806,0.0385 -0.040701,0.0841 -0.071643,0.13066 -0.066831,0.1006 -0.1444446,0.19067 -0.2279379,0.26752 -0.041957,0.0384 -0.084335,0.0729 -0.1302459,0.10576 -0.091837,0.0657 -0.1931559,0.12237 -0.29958,0.16798 -0.1596382,0.0684 -0.3331938,0.11275 -0.5210044,0.14309 -0.18586,0.03 -0.3871346,0.0413 -0.5926388,0.0373 -0.00202,-4e-5 -0.00433,6e-5 -0.00654,0 -0.067107,-9.8e-4 -0.1335049,-0.002 -0.2018925,-0.006 -0.00202,-1.2e-4 -0.00441,10e-5 -0.00654,0 -0.1391432,-0.01 -0.2814287,-0.0277 -0.4233171,-0.0498 -0.00202,-2.3e-4 -0.00445,2.3e-4 -0.00654,0 -0.144063,-0.0226 -0.2864409,-0.0534 -0.429826,-0.0871 -0.128147,-0.0301 -0.2529795,-0.0629 -0.3777318,-0.0995 -0.061674,-0.0181 -0.121754,-0.0365 -0.1823523,-0.056 -0.085628,-0.0275 -0.1712163,-0.0573 -0.253991,-0.0871 -0.038165,-0.0138 -0.073216,-0.0293 -0.1107102,-0.0435 -0.068107,-0.0258 -0.1363981,-0.0477 -0.2018925,-0.0746 -0.1007774,-0.0415 -0.1995728,-0.0871 -0.2930627,-0.13066 -0.049342,-0.0231 -0.1029569,-0.045 -0.14979,-0.0685 -0.3393621,-0.16933 -0.5123399,-0.32645 -0.6577797,-0.45418 0.061353,-0.0302 0.070647,-0.044 0.1628246,-0.0746 0.1719664,-0.0572 0.3980943,-0.11202 0.6447451,-0.16174 0.052974,-0.0106 0.1006895,-0.0209 0.1562996,-0.0311 0.6319071,-0.11632 1.4254631,-0.20188 2.1491424,-0.20531 z m 0.9833931,2.61301 a 0.19943769,0.19052337 0 0 0 -0.084661,0.35463 l 1.2829691,0.73413 a 0.19943769,0.19052337 0 1 0 0.2084016,-0.31729 l -1.2894784,-0.74036 a 0.19943769,0.19052337 0 0 0 -0.071639,-0.0249 0.19943769,0.19052337 0 0 0 -0.045593,-0.006 z m -1.1722549,0.006 a 0.19943769,0.19052337 0 0 0 -0.04559,0.35461 l 1.2959958,0.73413 a 0.19946755,0.19055188 0 1 0 0.2018924,-0.3235 l -1.2959998,-0.74036 a 0.19943769,0.19052337 0 0 0 -0.091174,-0.0249 0.19943769,0.19052337 0 0 0 -0.065125,0 z"
         style="fill:#009fe3;fill-opacity:1;stroke:#009fe3;stroke-width:0;stroke-miterlimit:4;stroke-dasharray:none;stroke-opacity:1" />
      <g
         aria-label="Faktor-IPS"
         transform="scale(1.0231269,0.97739587)"
         id="text3544-0-6-6-0"
         style="font-size:4.7069px;line-height:0%;font-family:OpenSymbol;-inkscape-font-specification:OpenSymbol;letter-spacing:-0.000920016px;word-spacing:0px;fill:#009fe3;stroke-width:0.392242">
        <g
           id="g1"
           transform="matrix(0.16978537,0,0,0.16978537,4.2073864,251.9592)">
          <path
             class="st0"
             d="m 23.718547,300.36596 0.713497,-1.05873 c 0.575401,0.50635 1.403978,0.78254 2.232555,0.78254 0.920641,0 1.496042,-0.36826 1.496042,-0.94366 0,-0.55238 -0.483337,-0.82857 -1.56509,-0.96667 -1.887315,-0.23016 -2.692876,-0.89763 -2.692876,-2.18652 0,-1.26588 1.127786,-2.14049 2.738908,-2.14049 0.943657,0 1.864298,0.32222 2.577795,0.87461 l -0.667465,1.0127 c -0.552385,-0.41429 -1.219849,-0.64445 -1.864298,-0.64445 -0.851593,0 -1.45001,0.36826 -1.45001,0.89763 0,0.52937 0.437305,0.80556 1.519058,0.94365 1.91033,0.2762 2.761923,0.94366 2.761923,2.20954 0,1.35795 -1.150801,2.25557 -2.853987,2.25557 -1.10477,-0.046 -2.186523,-0.39127 -2.946052,-1.03572 z"
             id="path40"
             style="display:inline;fill:#009fe3;stroke-width:0.0902785"
             inkscape:label="S" />
          <path
             class="st0"
             d="m 23.097114,296.49927 c 0,1.56509 -1.012705,2.57779 -2.577795,2.57779 h -1.887314 v 2.11748 h -1.357946 v -7.25005 h 3.24526 c 1.588106,0 2.577795,1.01271 2.577795,2.55478 z m -1.357945,0.023 c 0,-0.78255 -0.483337,-1.26589 -1.265882,-1.26589 h -1.841282 v 2.55478 h 1.841282 c 0.782545,-0.023 1.265882,-0.50635 1.265882,-1.28889 z"
             id="path38"
             style="display:inline;fill:#009fe3;stroke-width:0.0902785"
             inkscape:label="P" />
          <path
             class="st0"
             d="m 14.328008,293.94449 h 1.357945 v 7.27307 h -1.357945 z"
             id="path36"
             inkscape:label="I"
             style="fill:#009fe3;stroke-width:0.0902785" />
          <path
             class="st0"
             d="m 9.632738,298.17944 h 3.47542 v 1.1508 h -3.47542 z"
             id="path4"
             style="display:inline;fill:#103355;fill-opacity:1;stroke-width:0.0902785"
             inkscape:label="-" />
          <polygon
             class="st0"
             points="147.9,55.5 147.9,29.5 160.3,29.5 157.8,34.9 153.8,34.9 153.9,55.5 "
             id="polygon30"
             style="display:inline;fill:#103355;fill-opacity:1"
             inkscape:label="r"
             transform="matrix(0.23016028,0,0,0.23016028,-27.054812,288.44366)" />
          <path
             class="st0"
             d="m 3.2572982,295.09529 c -1.8873143,0 -3.1531958,1.26588 -3.1531958,3.13018 0,1.8643 1.2658815,3.13018 3.1531958,3.13018 1.8873143,0 3.1301798,-1.24286 3.1301798,-3.13018 0,-1.8643 -1.2428655,-3.13018 -3.1301798,-3.13018 z m 0,4.99448 c -1.0587373,0 -1.7722341,-0.73651 -1.7722341,-1.8643 0,-1.10477 0.7134968,-1.8643 1.7722341,-1.8643 1.0587373,0 1.7492182,0.73652 1.7492182,1.8643 0,1.10477 -0.6904809,1.8643 -1.7492182,1.8643 z"
             id="path24"
             style="display:inline;fill:#103355;fill-opacity:1;stroke-width:0.0902785"
             inkscape:label="o" />
          <polygon
             class="st0"
             points="103.7,34.9 95.1,34.9 100,29.5 117.5,29.5 117.5,34.9 109.6,34.9 109.6,55.5 103.7,55.5 "
             id="polygon20"
             inkscape:label="t"
             style="fill:#103355;fill-opacity:1"
             transform="matrix(0.23016028,0,0,0.23016028,-27.054812,288.44366)" />
          <polygon
             class="st0"
             points="82.8,42.2 95.3,55.5 87.3,55.5 78.2,45.6 78.2,55.5 72.2,55.5 72.2,29.5 78.2,29.5 78.2,39 86.6,29.5 94.2,29.5 "
             id="polygon16"
             inkscape:label="k"
             style="fill:#103355;fill-opacity:1"
             transform="matrix(0.23016028,0,0,0.23016028,-27.054812,288.44366)" />
          <path
             class="st0"
             d="m -13.49837,295.23339 h -1.380963 l -2.692875,5.98417 h 1.496042 l 0.483336,-1.12779 h 2.807957 l 0.483336,1.12779 h 1.496042 z m -1.611123,3.68256 0.920641,-2.14049 0.920642,2.14049 z"
             id="path12"
             inkscape:label="a"
             style="fill:#103355;fill-opacity:1;stroke-width:0.0902785" />
          <polygon
             class="st0"
             points="44.4,37 41.9,42.4 31.8,42.4 31.8,55.5 25.8,55.5 25.8,23.9 50.3,23.9 47.8,29.5 31.8,29.5 31.8,37 "
             id="polygon8"
             style="display:inline;fill:#103355;fill-opacity:1"
             inkscape:label="F"
             transform="matrix(0.23016028,0,0,0.23016028,-27.054812,288.44366)" />
          <text
             xml:space="preserve"
             style="font-style:normal;font-variant:normal;font-weight:bold;font-stretch:normal;font-size:3.43533px;line-height:0%;font-family:'Noto Mono';-inkscape-font-specification:'Noto Mono Bold';letter-spacing:-0.00122386px;word-spacing:0px;fill:#103355;fill-opacity:1;stroke:none;stroke-width:0.286278"
             x="32.078194"
             y="295.51584"
             id="text4218-3-3-3"
             inkscape:export-filename="/git/logos/faktor-ips/exports/fips_128_final.png"
             inkscape:export-xdpi="533.40997"
             inkscape:export-ydpi="533.40997"><tspan
               sodipodi:role="line"
               x="32.078194"
               y="295.51584"
               style="font-style:normal;font-variant:normal;font-weight:bold;font-stretch:normal;font-size:2.44769px;line-height:1.25;font-family:Nexa;-inkscape-font-specification:'Nexa Bold';text-align:end;letter-spacing:0px;text-anchor:end;fill:#103355;fill-opacity:1;stroke-width:0.286278"
               id="tspan4220-9-6">Ⓡ</tspan></text>
        </g>
      </g>
    </g>
  </g>
</svg>
